<svg width="622" height="622" viewBox="0 0 622 622" fill="none" xmlns="http://www.w3.org/2000/svg">
<path d="M206.09 476.45C208.82 468.35 213.35 460.92 219.72 455.2C223.62 451.7 228.2 448.83 233.45 446.85C232.99 446.41 232.53 445.97 232.08 445.53C218 431.67 208.46 413.69 203.14 393.93C202.33 398.54 201.64 403.02 201.1 407.26C199.92 416.47 199.41 424.56 199.89 430.44L200.32 436.21C201.2 448.25 202.42 464.89 206.09 476.45Z" fill="#666666"/>
<path d="M240.97 453.24C234.73 454.73 229.51 457.6 225.29 461.39C219.35 466.72 215.33 473.91 213.16 481.72C210.97 489.63 210.7 498.17 212.28 506.11C213.76 513.52 216.85 520.34 221.5 525.52C224.34 528.68 227.73 531.72 231.53 534.6C245.87 545.45 265.87 553.85 284.59 557.46C302.72 560.96 319.38 560.02 327.82 552.43C328.62 551.71 329.35 550.93 329.99 550.08C337.41 540.28 336.81 527.2 331.48 513.91C325.07 497.92 311.96 481.77 297.37 470.16C290.63 471.85 282.99 471.87 274.58 469.62C261.69 466.16 250.51 460.53 240.97 453.24Z" fill="#999999"/>
<path d="M211.53 501.06C211.7 502.76 211.95 504.45 212.28 506.1C213.76 513.51 216.85 520.33 221.5 525.51C224.34 528.67 227.73 531.71 231.53 534.59C245.87 545.44 265.87 553.84 284.59 557.45C302.72 560.95 319.38 560.01 327.82 552.42C328.62 551.7 329.35 550.92 329.99 550.07C337.41 540.27 336.81 527.19 331.48 513.9C325.07 497.91 311.96 481.76 297.37 470.15C290.63 471.84 282.99 471.86 274.58 469.61C274.14 469.49 273.71 469.37 273.28 469.25C278.67 475.64 287.03 485.25 295.39 493.62C309.41 507.64 315.91 537.17 272.86 533.17C229.86 529.17 211.56 501.11 211.53 501.06Z" fill="#666666"/>
<path d="M439.66 518.68C438.21 517.07 436.9 515.32 435.72 513.48C430.39 505.16 427.85 487.93 434.92 478.83C434.7 487.08 436.71 499.6 442.72 508.99C446.73 515.25 452.6 520.05 460.88 520.91C468.83 521.74 479.53 512.61 489.52 499.18C500.75 484.08 510.63 463.78 514.84 445.52C518.01 431.77 512.83 420.11 504.03 412.2C499.63 408.24 494.34 405.21 488.72 403.29C483.1 401.37 477.18 400.57 471.55 401.08C461.22 402.02 451.73 407.45 446.73 418.64C444.25 424.98 441.11 431.15 437.23 437.08C436.6 438.04 435.87 439.1 435.06 440.25C432.2 444.27 429.12 447.53 425.89 450.11C425.53 454.9 424.77 459.43 423.66 463.7C418.74 482.69 406.99 496.35 392.71 505.06C391.37 505.88 390 506.65 388.62 507.38C401.14 510.71 422.01 515.92 439.66 518.68Z" fill="#999999"/>
<path d="M439.66 518.68C438.21 517.07 436.9 515.32 435.72 513.48C430.39 505.16 427.85 487.93 434.92 478.83C434.7 487.08 436.71 499.6 442.72 508.99C446.73 515.25 452.6 520.05 460.88 520.91C468.83 521.74 479.53 512.61 489.52 499.18C497.16 488.91 504.17 476.24 509.2 463.43C495.88 489.84 479.71 510.14 458.58 503.64C437.45 497.13 460.61 404.09 460.63 404.03C454.82 406.83 449.89 411.59 446.73 418.64C444.25 424.98 441.11 431.15 437.23 437.08C436.6 438.04 435.87 439.1 435.06 440.25C432.2 444.27 429.12 447.53 425.89 450.11C425.53 454.9 424.77 459.43 423.66 463.7C418.74 482.69 406.99 496.35 392.71 505.06C391.37 505.88 390 506.65 388.62 507.38C401.14 510.71 422.01 515.92 439.66 518.68Z" fill="#666666"/>
<path d="M194.36 460.89C193.16 452.46 192.53 443.88 192.02 436.79C191.88 434.91 191.75 433.15 191.59 431.09C191.25 426.84 191.36 421.58 191.85 415.65C188.51 413.99 184.61 412.66 180.54 412.4C176.8 412.16 172.87 412.83 169.07 415.02C163.42 418.27 160.27 427.65 160.58 437.36C160.72 441.63 161.55 445.91 163.16 449.73C164.7 453.38 166.97 456.6 170.03 458.93C175.32 462.95 183.26 464.37 194.36 460.89Z" fill="#666666"/>
<path d="M245.71 251.41C245.04 252 244.34 252.67 243.63 253.4C228.64 268.63 217.87 289.23 211.87 311.64C205.79 334.32 204.6 358.79 208.83 381.42C213.03 403.87 222.55 424.47 237.92 439.6C248.17 449.69 261.05 457.37 276.74 461.57C290.9 465.36 302.25 461.33 309.94 453.81C313.86 449.97 316.87 445.23 318.84 440.16C320.82 435.07 321.76 429.65 321.55 424.47C321.17 415.18 317.04 406.67 308.45 402.4C304.99 400.68 301.66 398.84 298.48 396.91C275.41 382.84 259.56 363.13 252.38 341.05C245.17 318.88 246.7 294.39 258.39 270.86C259.81 268.01 261.36 265.19 263.07 262.39C263.59 261.54 264.04 260.74 264.43 259.99C262.94 259.48 261.49 258.96 260.07 258.41C254.82 256.36 250.04 254.03 245.71 251.41Z" fill="#999999"/>
<path d="M245.71 251.41C245.04 252 244.34 252.67 243.63 253.4C228.64 268.63 217.87 289.23 211.87 311.64C205.79 334.32 204.6 358.79 208.83 381.42C213.03 403.87 222.55 424.47 237.92 439.6C248.17 449.69 261.05 457.37 276.74 461.57C290.9 465.36 302.25 461.33 309.94 453.81C313.86 449.97 316.87 445.23 318.84 440.16C320.82 435.07 321.76 429.65 321.55 424.47C321.36 419.71 320.18 415.14 317.91 411.26C295.09 457.41 219.33 429.27 217.56 363.29C216.17 311.67 240.54 270.24 251.32 254.53C249.37 253.53 247.5 252.5 245.71 251.41Z" fill="#666666"/>
<path d="M245.71 251.41C245.04 252 244.34 252.67 243.63 253.4C241.05 256.02 238.59 258.8 236.27 261.72C241.81 265.58 248.22 268.93 255.52 271.76C256.2 272.02 256.89 272.28 257.59 272.54C257.86 271.97 258.13 271.41 258.41 270.85C259.83 268 261.38 265.18 263.09 262.38C263.61 261.53 264.06 260.73 264.45 259.98C262.96 259.47 261.51 258.95 260.09 258.4C254.82 256.36 250.04 254.03 245.71 251.41Z" fill="#666666"/>
<path d="M312.41 65.11C259.86 65.11 249.59 95.48 239.19 126.26C237.35 131.7 235.51 137.16 233.43 142.53C226.85 159.53 223.11 175.01 222.45 188.73C221.74 203.43 224.57 216.09 231.2 226.44C237.84 236.79 248.37 244.96 263.08 250.65C276.18 255.73 292.57 258.85 312.42 259.82C332.27 258.85 348.65 255.73 361.76 250.65C376.46 244.95 387 236.79 393.63 226.44C400.26 216.1 403.09 203.43 402.38 188.73C401.28 166 392.73 147.25 385.64 126.26C375.23 95.48 364.97 65.11 312.41 65.11Z" fill="#666666"/>
<path d="M312.41 67.8C266.98 67.8 258.11 94.05 249.12 120.65C247.53 125.36 245.94 130.07 244.14 134.71C238.45 149.4 235.22 162.78 234.65 174.65C234.04 187.35 236.48 198.3 242.21 207.24C247.95 216.19 257.05 223.25 269.76 228.17C281.09 232.56 295.25 235.26 312.41 236.1C329.57 235.26 343.73 232.56 355.06 228.17C367.77 223.25 376.87 216.19 382.61 207.24C388.34 198.3 390.79 187.35 390.17 174.65C389.22 155.01 381.83 138.8 375.7 120.65C366.71 94.05 357.84 67.8 312.41 67.8Z" fill="#999999"/>
<path d="M375.27 253.6C380.1 262.2 384.35 276.27 388.74 290.8C390.95 298.11 393.19 305.54 395.53 312.35C395.18 308.2 394.46 304.23 393.26 300.48C405.77 304.38 402.81 337.54 400.56 348.96C396.7 368.57 388.76 388.47 378.61 404.97C372.07 415.6 373.49 426.9 379.1 435.46C381.47 439.07 384.57 442.2 388.11 444.58H388.13C391.67 446.97 395.65 448.62 399.78 449.31C409.3 450.88 419.89 447.27 428.29 435.43C428.9 434.57 429.56 433.59 430.27 432.52C450.76 401.21 448.89 362.28 436.96 327.63C425.03 292.99 403.19 262.77 383.5 248.56C380.94 250.36 378.2 252.04 375.27 253.6Z" fill="#999999"/>
<path d="M376.81 408.34C372.41 417.95 374.07 427.81 379.1 435.46C381.47 439.07 384.57 442.2 388.11 444.58H388.13C391.67 446.97 395.65 448.62 399.78 449.31C409.3 450.88 419.89 447.27 428.29 435.43C428.9 434.57 429.56 433.59 430.27 432.52C450.76 401.21 448.89 362.28 436.96 327.63C426.12 296.15 407.1 268.33 388.94 252.85C426.16 295.15 436.56 353.22 435.06 378.75C433.56 404.28 421.8 425.56 397.27 422.55C383.68 420.88 378.62 414.08 376.81 408.34Z" fill="#666666"/>
<path d="M375.27 253.6C377.23 257.09 379.09 261.48 380.91 266.43C385.82 263.76 390.19 260.79 394.04 257.51C390.5 254.07 386.96 251.07 383.49 248.56C380.94 250.36 378.2 252.04 375.27 253.6Z" fill="#666666"/>
<path d="M379.44 89.59C392.08 85.36 403.46 87.87 412.97 94.24C422.77 100.8 430.48 111.52 435.43 123.07C435.63 123.52 435.85 124.05 436.08 124.6C441.28 137.42 444.48 153.01 447.91 169.73C457.86 218.17 469.84 276.47 539.79 297.96L539.78 297.98C552.2 301 563.99 302.62 573.74 302.65C581.34 302.68 587.51 301.74 591.49 299.77C594.32 298.37 595.78 296.35 595.37 293.67C594.44 287.67 587.21 278.8 571.16 266.6C515.34 224.17 495.81 178.11 479.74 140.21C472.22 122.47 465.47 106.57 456.14 94C451.26 87.43 445.8 82.3 440.04 78.41C428.64 70.71 416.1 67.88 404.68 68.26C393.33 68.63 383.17 72.14 376.42 77.15C375.12 78.12 373.95 79.14 372.94 80.2C375.37 83.16 377.51 86.3 379.44 89.59Z" fill="#999999"/>
<path d="M484.24 275.26C455.17 246.36 446.96 206.42 439.77 171.4C436.43 155.12 433.31 139.95 428.36 127.74L427.79 126.35C423.42 116.15 416.74 106.77 408.35 101.16C401.24 96.4 392.79 94.4 383.4 97.1C385.55 101.62 387.43 106.34 389.19 111.15C392.28 112.52 395.31 114.72 398.13 118.04C400.99 121.42 403.64 125.99 405.86 132.06V132.08C409.08 140.89 411.32 150.73 413.73 161.35C420.86 192.8 429.58 231.2 470.82 265.62C474.91 269.03 479.43 272.25 484.24 275.26Z" fill="#666666"/>
<path d="M316.6 198.91C316.65 204.94 316.72 216.45 316.61 220.61C318.78 224.21 325.6 230.08 330.83 226.3C330.18 235.29 318.89 233.92 312.42 228.33C305.95 233.93 294.66 235.29 294.01 226.3C299.24 230.08 306.07 224.21 308.23 220.61C308.12 216.45 308.19 204.95 308.24 198.91C300.26 197.47 289.76 192.29 299.55 183.18C299.57 183.2 306.81 190.98 312.4 190.98C317.98 190.98 325.23 183.2 325.25 183.18C335.04 192.28 324.58 197.47 316.6 198.91Z" fill="white"/>
<path d="M363.72 140.22C368.42 140.22 372.23 146.33 372.23 153.86C372.23 161.39 368.42 167.5 363.72 167.5C359.02 167.5 355.21 161.39 355.21 153.86C355.21 146.33 359.02 140.22 363.72 140.22Z" fill="white"/>
<path d="M261.1 140.22C265.8 140.22 269.61 146.33 269.61 153.86C269.61 161.39 265.8 167.5 261.1 167.5C256.4 167.5 252.59 161.39 252.59 153.86C252.59 146.33 256.4 140.22 261.1 140.22Z" fill="white"/>
<path d="M140.58 275.26C145.39 272.26 149.91 269.04 154.02 265.61C195.26 231.19 203.97 192.78 211.11 161.34C213.52 150.73 215.75 140.88 218.98 132.07V132.05C221.2 125.98 223.84 121.41 226.71 118.03C229.52 114.71 232.55 112.51 235.65 111.14C237.41 106.33 239.29 101.61 241.44 97.09C232.05 94.39 223.6 96.39 216.49 101.15C208.1 106.76 201.42 116.15 197.05 126.34L196.47 127.73C191.52 139.94 188.4 155.11 185.06 171.39C177.86 206.42 169.65 246.36 140.58 275.26Z" fill="#666666"/>
<path d="M251.87 80.22C250.86 79.16 249.69 78.14 248.39 77.17C241.64 72.16 231.47 68.65 220.13 68.28C208.71 67.9 196.17 70.73 184.77 78.43C179.02 82.32 173.55 87.44 168.67 94.02C159.33 106.59 152.59 122.5 145.07 140.23C129 178.13 109.47 224.19 53.65 266.62C37.61 278.81 30.3701 287.69 29.4401 293.69C29.0301 296.36 30.4901 298.38 33.3101 299.79C37.2901 301.76 43.4701 302.69 51.0601 302.67C60.8101 302.64 72.6001 301.02 85.0201 298L85.01 297.98C154.96 276.48 166.94 218.19 176.89 169.75C180.32 153.03 183.53 137.44 188.72 124.62L189.36 123.08C194.32 111.54 202.02 100.82 211.83 94.25C221.35 87.88 232.72 85.37 245.37 89.6C247.31 86.3 249.46 83.16 251.87 80.22Z" fill="#999999"/>
<path d="M251.87 80.22C250.86 79.16 249.69 78.14 248.39 77.17C243.72 73.7 237.42 70.96 230.22 69.47C227.94 72.99 223.87 76.38 217.06 79.16C190.03 90.17 169.51 111.2 161.5 164.76C153.49 218.32 111.1 297.66 29.4301 295.29C29.7101 297.19 31.0801 298.69 33.3201 299.79C37.3001 301.76 43.4801 302.69 51.0701 302.67C60.8201 302.64 72.6101 301.02 85.0301 298L85.0201 297.98C154.97 276.48 166.95 218.19 176.9 169.75C180.33 153.03 183.54 137.44 188.73 124.62L189.37 123.08C194.33 111.54 202.03 100.82 211.84 94.25C221.36 87.88 232.73 85.37 245.38 89.6C247.31 86.3 249.46 83.16 251.87 80.22Z" fill="#666666"/>
<path d="M337.59 507.07C340.67 507.75 343.93 508.17 347.29 508.35C360.71 509.05 375.67 505.7 388.37 497.96C400.95 490.29 411.29 478.29 415.61 461.62C416.12 459.64 416.55 457.59 416.89 455.47C410.78 457.99 404.46 458.52 398.43 457.53C393.06 456.64 387.95 454.53 383.46 451.5C378.98 448.47 375.08 444.54 372.12 440.03C364.87 428.97 363.04 414.36 371.5 400.61C381.16 384.91 388.7 365.99 392.37 347.37C393.34 342.43 394.19 337.51 394.8 332.69C389.56 322.38 385.09 307.55 380.75 293.18C376.37 278.68 372.14 264.67 367.74 257.19C366.76 257.61 365.76 258.01 364.74 258.4C350.76 263.81 333.44 267.13 312.6 268.13H312.21C297.16 267.4 283.95 265.47 272.51 262.42L272.27 262.92H272.25C271.63 264.2 270.93 265.46 270.17 266.71C268.59 269.31 267.15 271.92 265.85 274.52C255.17 296.01 253.75 318.32 260.3 338.45C266.87 358.67 281.48 376.78 302.81 389.78C305.79 391.6 308.9 393.31 312.12 394.92C323.76 400.7 329.36 411.95 329.85 424.13C330.11 430.44 328.97 437.01 326.58 443.15C324.19 449.31 320.53 455.06 315.75 459.74C312.95 462.48 309.78 464.85 306.25 466.73C319.28 477.92 330.86 492.4 337.59 507.07Z" fill="#999999"/>
<path d="M280.74 264.36C277.9 263.77 275.16 263.13 272.52 262.42L272.28 262.92H272.26C271.64 264.2 270.94 265.46 270.18 266.71C268.6 269.31 267.16 271.92 265.86 274.52C255.18 296.01 253.76 318.32 260.31 338.45C263.73 348.98 269.33 358.94 276.93 367.9C247.52 316.35 268.79 279.24 280.74 264.36Z" fill="#666666"/>
<path d="M337.59 507.07C340.67 507.75 343.93 508.17 347.29 508.35C360.71 509.05 375.67 505.7 388.37 497.96C400.95 490.29 411.29 478.29 415.61 461.62C416.12 459.64 416.55 457.59 416.89 455.47C410.78 457.99 404.46 458.52 398.43 457.53C393.06 456.64 387.95 454.53 383.46 451.5C378.98 448.47 375.08 444.54 372.12 440.03C369.85 436.57 368.11 432.77 367.06 428.75C364.67 433.25 360.07 438.57 351.46 439.82C340.41 441.43 332.41 438.21 328.72 436.22C328.19 438.57 327.48 440.89 326.6 443.15C324.21 449.31 320.55 455.06 315.77 459.74C312.97 462.48 309.8 464.85 306.27 466.73C319.28 477.92 330.86 492.4 337.59 507.07Z" fill="#666666"/>
<path d="M373.39 270.09C371.52 264.89 369.65 260.42 367.74 257.19C366.76 257.61 365.76 258.01 364.74 258.4C350.76 263.81 333.44 267.13 312.6 268.13H312.21C297.16 267.4 283.95 265.47 272.51 262.42L272.27 262.92H272.25C271.63 264.2 270.93 265.46 270.17 266.71C268.59 269.31 267.15 271.92 265.85 274.52L265.54 275.15C278.74 279.02 294.32 281.45 312.4 282.33C335.29 281.21 354.19 277.61 369.3 271.75C370.71 271.23 372.07 270.67 373.39 270.09Z" fill="#666666"/>
<path d="M206.09 476.45C208.82 468.35 213.35 460.92 219.72 455.2C223.62 451.7 228.2 448.83 233.45 446.85C232.99 446.41 232.53 445.97 232.08 445.53C218 431.67 208.46 413.69 203.14 393.93C202.33 398.54 201.64 403.02 201.1 407.26C199.92 416.47 199.41 424.56 199.89 430.44L200.32 436.21C201.2 448.25 202.42 464.89 206.09 476.45ZM240.97 453.24C234.73 454.73 229.51 457.6 225.29 461.39C219.35 466.72 215.33 473.91 213.16 481.72C210.97 489.63 210.7 498.17 212.28 506.11C213.76 513.52 216.85 520.34 221.5 525.52C224.34 528.68 227.73 531.72 231.53 534.6C245.87 545.45 265.87 553.85 284.59 557.46C302.72 560.96 319.38 560.02 327.82 552.43C328.62 551.71 329.35 550.93 329.99 550.08C337.41 540.28 336.81 527.2 331.48 513.91C325.07 497.92 311.96 481.77 297.37 470.16C290.63 471.85 282.99 471.87 274.58 469.62C261.69 466.16 250.51 460.53 240.97 453.24ZM439.66 518.68C438.21 517.07 436.9 515.32 435.72 513.48C430.39 505.16 427.85 487.93 434.92 478.83C434.7 487.08 436.71 499.6 442.72 508.99C446.73 515.25 452.6 520.05 460.88 520.91C468.83 521.74 479.53 512.61 489.52 499.18C500.75 484.08 510.63 463.78 514.84 445.52C518.01 431.77 512.83 420.11 504.03 412.2C499.63 408.24 494.34 405.21 488.72 403.29C483.1 401.37 477.18 400.57 471.55 401.08C461.22 402.02 451.73 407.45 446.73 418.64C444.25 424.98 441.11 431.15 437.23 437.08C436.6 438.04 435.87 439.1 435.06 440.25C432.2 444.27 429.12 447.53 425.89 450.11C425.53 454.9 424.77 459.43 423.66 463.7C418.74 482.69 406.99 496.35 392.71 505.06C391.37 505.88 390 506.65 388.62 507.38C401.14 510.71 422.01 515.92 439.66 518.68ZM194.36 460.89C193.16 452.46 192.53 443.88 192.02 436.79C191.88 434.91 191.75 433.15 191.59 431.09C191.25 426.84 191.36 421.58 191.85 415.65C188.51 413.99 184.61 412.66 180.54 412.4C176.8 412.16 172.87 412.83 169.07 415.02C163.42 418.27 160.27 427.65 160.58 437.36C160.72 441.63 161.55 445.91 163.16 449.73C164.7 453.38 166.97 456.6 170.03 458.93C175.32 462.95 183.26 464.37 194.36 460.89ZM245.71 251.41C245.04 252 244.34 252.67 243.63 253.4C228.64 268.63 217.87 289.23 211.87 311.64C205.79 334.32 204.6 358.79 208.83 381.42C213.03 403.87 222.55 424.47 237.92 439.6C248.17 449.69 261.05 457.37 276.74 461.57C290.9 465.36 302.25 461.33 309.94 453.81C313.86 449.97 316.87 445.23 318.84 440.16C320.82 435.07 321.76 429.65 321.55 424.47C321.17 415.18 317.04 406.67 308.45 402.4C304.99 400.68 301.66 398.84 298.48 396.91C275.41 382.84 259.56 363.13 252.38 341.05C245.17 318.88 246.7 294.39 258.39 270.86C259.81 268.01 261.36 265.19 263.07 262.39C263.59 261.54 264.04 260.74 264.43 259.99C262.94 259.48 261.49 258.96 260.07 258.41C254.82 256.36 250.04 254.03 245.71 251.41ZM312.41 65.11C259.86 65.11 249.59 95.48 239.19 126.26C237.35 131.7 235.51 137.16 233.43 142.53C226.85 159.53 223.11 175.01 222.45 188.73C221.74 203.43 224.57 216.09 231.2 226.44C237.84 236.79 248.37 244.96 263.08 250.65C276.18 255.73 292.57 258.85 312.42 259.82C332.27 258.85 348.65 255.73 361.76 250.65C376.46 244.95 387 236.79 393.63 226.44C400.26 216.1 403.09 203.43 402.38 188.73C401.28 166 392.73 147.25 385.64 126.26C375.23 95.48 364.97 65.11 312.41 65.11ZM375.27 253.6C380.1 262.2 384.35 276.27 388.74 290.8C390.95 298.11 393.19 305.54 395.53 312.35C395.18 308.2 394.46 304.23 393.26 300.48C405.77 304.38 402.81 337.54 400.56 348.96C396.7 368.57 388.76 388.47 378.61 404.97C372.07 415.6 373.49 426.9 379.1 435.46C381.47 439.07 384.57 442.2 388.11 444.58H388.13C391.67 446.97 395.65 448.62 399.78 449.31C409.3 450.88 419.89 447.27 428.29 435.43C428.9 434.57 429.56 433.59 430.27 432.52C450.76 401.21 448.89 362.28 436.96 327.63C425.03 292.99 403.19 262.77 383.5 248.56C380.94 250.36 378.2 252.04 375.27 253.6ZM379.44 89.59C392.08 85.36 403.46 87.87 412.97 94.24C422.77 100.8 430.48 111.52 435.43 123.07C435.63 123.52 435.85 124.05 436.08 124.6C441.28 137.42 444.48 153.01 447.91 169.73C457.86 218.17 469.84 276.47 539.79 297.96L539.78 297.98C552.2 301 563.99 302.62 573.74 302.65C581.34 302.68 587.51 301.74 591.49 299.77C594.32 298.37 595.78 296.35 595.37 293.67C594.44 287.67 587.21 278.8 571.16 266.6C515.34 224.17 495.81 178.11 479.74 140.21C472.22 122.47 465.47 106.57 456.14 94C451.26 87.43 445.8 82.3 440.04 78.41C428.64 70.71 416.1 67.88 404.68 68.26C393.33 68.63 383.17 72.14 376.42 77.15C375.12 78.12 373.95 79.14 372.94 80.2C375.37 83.16 377.51 86.3 379.44 89.59ZM484.24 275.26C455.17 246.36 446.96 206.42 439.77 171.4C436.43 155.12 433.31 139.95 428.36 127.74L427.79 126.35C423.42 116.15 416.74 106.77 408.35 101.16C401.24 96.4 392.79 94.4 383.4 97.1C385.55 101.62 387.43 106.34 389.19 111.15C392.28 112.52 395.31 114.72 398.13 118.04C400.99 121.42 403.64 125.99 405.86 132.06V132.08C409.08 140.89 411.32 150.73 413.73 161.35C420.86 192.8 429.58 231.2 470.82 265.62C474.91 269.03 479.43 272.25 484.24 275.26ZM316.6 198.91C316.65 204.94 316.72 216.45 316.61 220.61C318.78 224.21 325.6 230.08 330.83 226.3C330.18 235.29 318.89 233.92 312.42 228.33C305.95 233.93 294.66 235.29 294.01 226.3C299.24 230.08 306.07 224.21 308.23 220.61C308.12 216.45 308.19 204.95 308.24 198.91C300.26 197.47 289.76 192.29 299.55 183.18C299.57 183.2 306.81 190.98 312.4 190.98C317.98 190.98 325.23 183.2 325.25 183.18C335.04 192.28 324.58 197.47 316.6 198.91ZM363.72 140.22C368.42 140.22 372.23 146.33 372.23 153.86C372.23 161.39 368.42 167.5 363.72 167.5C359.02 167.5 355.21 161.39 355.21 153.86C355.21 146.33 359.02 140.22 363.72 140.22ZM261.1 140.22C265.8 140.22 269.61 146.33 269.61 153.86C269.61 161.39 265.8 167.5 261.1 167.5C256.4 167.5 252.59 161.39 252.59 153.86C252.59 146.33 256.4 140.22 261.1 140.22ZM214.58 182.54C207.11 210.92 194.48 242.67 159.37 271.99C140.35 287.86 112.98 299.55 87.87 305.8L87.48 305.92L87.47 305.9C74.16 309.18 61.51 310.94 51.08 310.97C42.23 311 34.79 309.79 29.64 307.24C23.34 304.12 20.15 299.23 21.2 292.41C22.44 284.41 30.66 273.66 48.63 260C102.67 218.92 121.73 173.98 137.41 137C145.14 118.76 152.08 102.4 161.99 89.06C167.48 81.66 173.63 75.89 180.11 71.52C193.08 62.76 207.37 59.54 220.39 59.97C233.48 60.4 245.35 64.56 253.35 70.5C254.91 71.66 256.33 72.89 257.6 74.17C269.11 63.59 285.91 56.77 312.42 56.77C338.93 56.77 355.73 63.58 367.24 74.17C368.51 72.89 369.92 71.66 371.48 70.5C379.48 64.56 391.35 60.41 404.43 59.97C417.45 59.54 431.74 62.76 444.71 71.52C451.19 75.9 457.34 81.66 462.83 89.06C472.74 102.4 479.68 118.76 487.41 137C503.09 173.98 522.15 218.92 576.19 260C594.16 273.66 602.39 284.41 603.62 292.41C604.67 299.23 601.48 304.12 595.18 307.24C590.04 309.79 582.6 310.99 573.75 310.97C563.32 310.93 550.66 309.18 537.36 305.9L537.35 305.92L536.96 305.8C511.84 299.55 484.47 287.86 465.46 271.99C430.34 242.67 417.72 210.92 410.24 182.54C410.44 184.5 410.59 186.43 410.68 188.33C411.47 204.77 408.23 219.08 400.63 230.93C397.77 235.39 394.31 239.48 390.22 243.2C410.63 258.8 432.73 289.77 444.84 324.93C453.07 348.85 456.73 374.77 452.22 399.27C457.74 395.5 464.14 393.42 470.8 392.81C477.63 392.19 484.72 393.13 491.39 395.41C498.07 397.69 504.36 401.3 509.6 406.01C520.49 415.8 526.9 430.27 522.95 447.38C518.49 466.72 508.05 488.19 496.2 504.13C484.55 519.79 471.2 530.35 460.03 529.19C459.17 529.1 458.33 528.98 457.51 528.83C432.61 528.31 384.25 514.89 376.26 512.63C366.49 515.85 356.33 517.16 346.86 516.67C344.91 516.57 342.99 516.39 341.1 516.14C345.55 530.23 345 544.05 336.63 555.11C335.66 556.39 334.58 557.56 333.38 558.63C322.81 568.12 303.51 569.6 283.01 565.65C263.11 561.81 241.82 552.85 226.5 541.26C222.28 538.07 218.5 534.67 215.3 531.11C209.6 524.77 205.84 516.57 204.09 507.76C202.94 501.99 202.65 495.93 203.22 489.93C199.7 484.78 197.36 477.32 195.74 469.18C182.22 473.15 172.09 470.98 164.95 465.55C160.68 462.3 157.56 457.91 155.47 452.96C153.45 448.17 152.41 442.87 152.24 437.63C151.84 425.11 156.54 412.64 164.9 407.83C170.3 404.72 175.82 403.77 181.04 404.1C185.23 404.37 189.2 405.47 192.75 406.94L192.84 406.23C194.19 395.74 196.38 383.92 199.02 372.2C196.66 351.48 198.37 329.79 203.8 309.51C210.16 285.78 221.63 263.89 237.68 247.59C238 247.26 238.33 246.94 238.66 246.62C232.76 242.06 227.95 236.82 224.19 230.95C216.59 219.1 213.34 204.8 214.14 188.35C214.23 186.43 214.38 184.5 214.58 182.54ZM140.58 275.26C145.39 272.26 149.91 269.04 154.02 265.61C195.26 231.19 203.97 192.78 211.11 161.34C213.52 150.73 215.75 140.88 218.98 132.07V132.05C221.2 125.98 223.84 121.41 226.71 118.03C229.52 114.71 232.55 112.51 235.65 111.14C237.41 106.33 239.29 101.61 241.44 97.09C232.05 94.39 223.6 96.39 216.49 101.15C208.1 106.76 201.42 116.15 197.05 126.34L196.47 127.73C191.52 139.94 188.4 155.11 185.06 171.39C177.86 206.42 169.65 246.36 140.58 275.26ZM251.87 80.22C250.86 79.16 249.69 78.14 248.39 77.17C241.64 72.16 231.47 68.65 220.13 68.28C208.71 67.9 196.17 70.73 184.77 78.43C179.02 82.32 173.55 87.44 168.67 94.02C159.33 106.59 152.59 122.5 145.07 140.23C129 178.13 109.47 224.19 53.65 266.62C37.61 278.81 30.37 287.69 29.44 293.69C29.03 296.36 30.49 298.38 33.31 299.79C37.29 301.76 43.47 302.69 51.06 302.67C60.81 302.64 72.6 301.02 85.02 298L85.01 297.98C154.96 276.48 166.94 218.19 176.89 169.75C180.32 153.03 183.53 137.44 188.72 124.62L189.36 123.08C194.32 111.54 202.02 100.82 211.83 94.25C221.35 87.88 232.72 85.37 245.37 89.6C247.31 86.3 249.46 83.16 251.87 80.22ZM337.59 507.07C340.67 507.75 343.93 508.17 347.29 508.35C360.71 509.05 375.67 505.7 388.37 497.96C400.95 490.29 411.29 478.29 415.61 461.62C416.12 459.64 416.55 457.59 416.89 455.47C410.78 457.99 404.46 458.52 398.43 457.53C393.06 456.64 387.95 454.53 383.46 451.5C378.98 448.47 375.08 444.54 372.12 440.03C364.87 428.97 363.04 414.36 371.5 400.61C381.16 384.91 388.7 365.99 392.37 347.37C393.34 342.43 394.19 337.51 394.8 332.69C389.56 322.38 385.09 307.55 380.75 293.18C376.37 278.68 372.14 264.67 367.74 257.19C366.76 257.61 365.76 258.01 364.74 258.4C350.76 263.81 333.44 267.13 312.6 268.13H312.21C297.16 267.4 283.95 265.47 272.51 262.42L272.27 262.92H272.25C271.63 264.2 270.93 265.46 270.17 266.71C268.59 269.31 267.15 271.92 265.85 274.52C255.17 296.01 253.75 318.32 260.3 338.45C266.87 358.67 281.48 376.78 302.81 389.78C305.79 391.6 308.9 393.31 312.12 394.92C323.76 400.7 329.36 411.95 329.85 424.13C330.11 430.44 328.97 437.01 326.58 443.15C324.19 449.31 320.53 455.06 315.75 459.74C312.95 462.48 309.78 464.85 306.25 466.73C319.28 477.92 330.86 492.4 337.59 507.07Z" fill="#1A1A1A"/>
<path d="M372.95 80.23C373.96 79.17 375.13 78.15 376.43 77.18C381.1 73.71 387.41 70.96 394.61 69.48C396.89 73 400.96 76.39 407.77 79.17C434.8 90.18 455.32 111.2 463.33 164.77C471.34 218.33 513.73 297.67 595.41 295.3C595.13 297.2 593.75 298.7 591.52 299.8C587.54 301.77 581.36 302.7 573.77 302.68C564.02 302.65 552.23 301.04 539.81 298.01L539.82 297.99C469.87 276.49 457.89 218.2 447.94 169.75C444.5 153.03 441.3 137.44 436.11 124.62L435.47 123.08C430.51 111.54 422.81 100.82 413 94.25C403.48 87.88 392.11 85.37 379.46 89.6C377.51 86.3 375.37 83.17 372.95 80.23Z" fill="#666666"/>
<path fill-rule="evenodd" clip-rule="evenodd" d="M258.7 145.22C259.98 145.22 261.02 147.15 261.02 149.54C261.02 151.93 259.98 153.86 258.7 153.86C257.42 153.86 256.38 151.93 256.38 149.54C256.38 147.15 257.42 145.22 258.7 145.22Z" fill="white"/>
<path fill-rule="evenodd" clip-rule="evenodd" d="M366.13 145.22C367.41 145.22 368.45 147.15 368.45 149.54C368.45 151.93 367.41 153.86 366.13 153.86C364.85 153.86 363.81 151.93 363.81 149.54C363.81 147.15 364.85 145.22 366.13 145.22Z" fill="white"/>
</svg> 
